<?xml version="1.0" encoding="utf-8"?>
<!-- Svg Vector Icons : http://www.onlinewebfonts.com/icon -->
<!DOCTYPE svg PUBLIC "-//W3C//DTD SVG 1.1//EN" "http://www.w3.org/Graphics/SVG/1.1/DTD/svg11.dtd">
<svg version="1.1" xmlns="http://www.w3.org/2000/svg" xmlns:xlink="http://www.w3.org/1999/xlink" x="0px" y="0px" viewBox="0 0 1000 1000" enable-background="new 0 0 1000 1000" xml:space="preserve">
<metadata> Svg Vector Icons : http://www.onlinewebfonts.com/icon </metadata>
<g><g transform="translate(0.000000,512.000000) scale(0.100000,-0.100000)"><path d="M2396.9,4983.5c-51.7-24.9-339.1-300.8-866-827.7c-676.3-680.2-791.3-804.7-812.4-873.7c-51.7-178.2-90-130.3,1157.3-1379.5C3124.9,655.3,3079,693.6,3253.3,745.3c65.1,19.2,137.9,80.5,360.2,300.8l279.7,275.9l160.9-162.9L4217,996.3l-283.6-283.6l-283.6-283.6l72.8-24.9c457.9-164.8,917.8-505.8,1210.9-900.5c107.3-143.7,291.2-494.3,348.7-659.1l24.9-72.8l356.4,356.4l354.5,354.5l162.9-162.9L6341.9-843l-346.8-348.7c-283.6-287.4-350.6-365.9-371.7-431.1c-51.7-178.2-90-130.3,1157.2-1379.5c1247.3-1247.3,1201.3-1209,1379.5-1157.2c69,21.1,191.6,136,889,831.5c695.5,697.4,810.4,820,831.5,890.9c51.7,176.3,90,130.3-1157.2,1377.6C7474.2,187.8,7520.2,149.5,7345.8,97.7c-65.1-19.2-138-80.5-360.2-300.8L6705.9-479L6545-316.1l-160.9,161l153.3,159c82.4,88.1,180.1,201.2,214.6,254.8c101.5,153.3,139.9,335.3,101.5,469.4c-11.5,40.2,0,63.2,69,139.9c298.9,323.8,275.9,839.2-51.7,1151.5c-132.2,126.5-274,197.4-450.3,226.1c-239.5,40.2-528.8-49.8-685.9-210.8c-70.9-72.8-78.6-74.7-143.7-57.5c-103.5,28.7-245.2,5.7-383.2-63.2c-92-44.1-187.8-122.6-375.5-306.6l-252.9-245.2l-160.9,160.9l-160.9,162.9l346.8,348.7c283.6,287.4,350.6,365.9,371.7,433c51.7,174.4,88.1,130.3-1138.1,1362.3c-756.8,756.8-1140,1128.5-1191.7,1153.4C2550.1,5027.5,2492.7,5027.5,2396.9,4983.5z M2747.5,4056.2l214.6-214.6l-216.5-216.5L2531,3410.5l-220.3,220.3l-220.3,220.3l210.8,210.8c115,115,214.6,210.8,220.3,210.8S2628.7,4174.9,2747.5,4056.2z M2096,3404.7l214.6-214.6l-216.5-216.5L1879.5,2759l-220.3,220.3l-220.3,220.3l210.8,210.8c115,115,214.6,210.8,220.3,210.8C1875.7,3621.2,1977.3,3523.5,2096,3404.7z M3393.2,3410.5l210.8-210.8l-216.5-216.5l-214.6-214.6l-214.6,214.6l-216.5,216.5l210.8,210.8c115,115,214.6,210.8,220.3,210.8S3278.2,3525.4,3393.2,3410.5z M4038.9,2333.7l-214.6-216.5l-220.3,220.3l-220.3,220.3l214.6,214.6l216.5,216.5l220.3-220.3l220.3-220.3L4038.9,2333.7z M2741.7,2759l210.8-210.8L2736,2331.8l-214.6-214.6l-214.6,214.6l-216.5,216.5l210.8,210.8c115,115,214.6,210.8,220.3,210.8S2626.8,2874,2741.7,2759z M3389.3,1682.2l-216.5-216.5l-210.8,210.8c-115,115-210.8,218.4-210.8,229.9c0,9.6,92,111.1,205,224.2l206.9,206.9l220.3-220.3l220.3-220.3L3389.3,1682.2z M7652.4-848.8l214.6-214.6l-216.5-216.5l-214.6-214.6l-220.3,220.3l-220.3,220.3L7206-843c115,115,214.6,210.8,220.3,210.8C7432.1-632.3,7533.6-730,7652.4-848.8z M6999.1-1498.3l216.5-216.5l-205-205c-113-115-214.6-206.9-226.1-206.9c-11.5,0-115,95.8-229.9,210.8l-210.8,210.8l210.8,210.8c115,116.9,214.6,210.8,220.3,210.8C6778.7-1283.7,6880.3-1381.4,6999.1-1498.3z M8298.1-1494.5l210.8-210.8l-216.5-216.5l-214.6-214.6l-214.6,214.6l-216.5,216.5l210.8,210.8c115,115,214.6,210.8,220.3,210.8C8083.5-1283.7,8183.1-1379.5,8298.1-1494.5z M8943.8-2571.3l-214.6-216.5l-220.3,220.3l-220.3,220.3l214.6,214.6l216.5,216.5l220.3-220.3l220.3-220.3L8943.8-2571.3z M7646.7-2145.9l210.8-210.8l-216.5-216.5l-214.6-214.6l-214.6,214.6l-216.5,216.5l210.8,210.8c115,115,214.6,210.8,220.3,210.8C7432.1-1935.1,7531.7-2030.9,7646.7-2145.9z M8292.4-3222.7l-214.6-216.5l-220.3,220.3l-220.3,220.3l214.6,214.6l216.5,216.5l220.3-220.3l220.3-220.3L8292.4-3222.7z"/><path d="M2038.6,392.8c-300.8-47.9-603.5-199.3-682.1-343c-53.7-99.6-42.2-312.3,30.6-526.9c109.2-318.1,337.2-730,603.5-1088.3l116.9-159l111.1,197.3c59.4,107.3,109.2,205,111.1,214.6c0,11.5-42.2,70.9-92,134.1c-235.7,293.1-406.2,580.5-406.2,680.2c0,172.4,308.5,93.9,741.5-189.7c551.8-360.2,1228.1-1030.8,1596-1582.6c291.2-433,385.1-776,214.6-776c-90.1,0-302.7,118.8-563.3,316.1c-134.1,99.6-249.1,182-254.8,182c-13.4,0-325.7-182-367.9-216.5c-30.6-23,24.9-69,327.6-272.1c622.7-413.8,1189.8-607.4,1410.2-479c90.1,53.6,214.6,247.2,274,425.4c208.8,636.1,17.2,1550-471.3,2241.7c-149.5,210.8-454.1,521.2-661,672.5C3462.1,275.9,2686.2,492.4,2038.6,392.8z"/><path d="M2860.5-1517.5c-26.8-34.5-157.1-249.1-291.2-475.2s-247.2-415.8-251-419.6c-3.8-3.8-19.2,1.9-32.6,13.4c-13.4,11.5-70.9,30.7-126.5,44.1c-277.8,59.4-526.9-151.4-526.9-442.6c0-264.4,185.8-448.3,448.3-448.3c316.1,0,521.2,289.3,421.5,592c-13.4,38.3-19.2,72.8-15.3,76.6c1.9,1.9,199.3,128.4,436.8,277.8c237.6,149.4,446.4,285.5,465.6,302.7c76.6,67.1,21.1,226.1-134.1,383.2C3086.6-1444.6,2941-1408.3,2860.5-1517.5z"/><path d="M850.7-2663.2c-70.9-42.1-105.4-459.8-55.6-670.6c101.6-425.4,431.1-714.7,873.7-764.5c149.4-17.2,408.1,3.8,492.4,38.3c67.1,26.8,90,101.6,51.7,168.6c-26.8,47.9-38.3,49.8-237.6,61.3c-243.3,13.4-385.1,55.6-544.1,164.8c-249.1,172.4-385.1,450.3-385.1,795.1c0,149.4-3.8,168.6-42.2,195.4C956-2640.2,898.6-2636.4,850.7-2663.2z"/><path d="M168.6-2715c-72.8-139.9-92-680.2-36.4-913.9c113.1-457.9,367.9-793.2,749.2-979.1c270.2-134.1,427.3-168.6,758.7-168.6c208.8,1.9,310.4,9.6,411.9,36.4l134.1,36.4l5.7,90.1c7.7,128.4-32.6,151.3-226.1,128.4c-162.9-19.2-413.9,3.8-574.8,51.7c-358.3,105.4-666.8,362.1-843,701.3c-122.6,233.8-157.1,396.6-157.1,724.2c0,162.9-7.7,287.4-19.2,302.7C341-2669,189.6-2676.6,168.6-2715z"/></g></g>
</svg>